<svg xmlns="http://www.w3.org/2000/svg" viewBox="0 0 1600 900" role="img" aria-labelledby="title desc"><title id="title">جنگل مه‌آلود شمال</title><desc id="desc">تصویرسازی مینیمال و سینمایی از جنگل سبز و مه‌آلود شمال ایران</desc><defs><linearGradient id="sky" x1="0" y1="0" x2="0" y2="1"><stop stop-color="#162c25"/><stop offset=".58" stop-color="#385a4a"/><stop offset="1" stop-color="#8ca08c"/></linearGradient><linearGradient id="mist" x1="0" y1="0" x2="1" y2="0"><stop stop-color="#dfe8df" stop-opacity=".08"/><stop offset=".5" stop-color="#f0f3eb" stop-opacity=".48"/><stop offset="1" stop-color="#dce8de" stop-opacity=".1"/></linearGradient><filter id="blur"><feGaussianBlur stdDeviation="18"/></filter></defs><rect width="1600" height="900" fill="url(#sky)"/><path fill="#0c2019" d="M0 650 110 420 170 560 245 330 325 570 420 290 500 590 610 360 700 610 810 270 900 600 1010 340 1090 610 1200 250 1300 570 1410 310 1510 570 1600 390V900H0Z"/><path fill="#19372a" d="M0 760 160 470 270 690 390 420 520 710 670 450 790 720 930 390 1070 690 1190 430 1320 700 1450 470 1600 680V900H0Z" opacity=".92"/><g fill="#315846"><path d="M100 900 185 430 270 900Z"/><path d="M310 900 390 360 475 900Z"/><path d="M520 900 610 420 700 900Z"/><path d="M780 900 870 330 960 900Z"/><path d="M1040 900 1130 390 1220 900Z"/><path d="M1290 900 1380 350 1470 900Z"/></g><g fill="#547561" opacity=".8"><path d="M0 900 75 560 150 900Z"/><path d="M220 900 300 500 380 900Z"/><path d="M455 900 540 520 625 900Z"/><path d="M690 900 770 500 850 900Z"/><path d="M920 900 1000 530 1080 900Z"/><path d="M1160 900 1240 510 1320 900Z"/><path d="M1390 900 1470 540 1550 900Z"/></g><ellipse cx="800" cy="635" rx="700" ry="125" fill="url(#mist)" filter="url(#blur)"/><path d="M0 790 Q400 700 800 790 T1600 790V900H0Z" fill="#142a22" opacity=".88"/></svg>